<svg xmlns="http://www.w3.org/2000/svg" width="400" height="400" viewBox="0 0 400 400"><path d="M 254.2 0 c 60.7457 0 91.1185 0 112.4106 15.4696 a 81.0000 81.0000 0 0 1 17.9198 17.9198 c 15.4696 21.2921 15.4696 51.6649 15.4696 112.4106 L 400 254.2 c 0 60.7457 0 91.1185 -15.4696 112.4106 a 81.0000 81.0000 0 0 1 -17.9198 17.9198 c -21.2921 15.4696 -51.6649 15.4696 -112.4106 15.4696 L 145.8 400 c -60.7457 0 -91.1185 0 -112.4106 -15.4696 a 81.0000 81.0000 0 0 1 -17.9198 -17.9198 c -15.4696 -21.2921 -15.4696 -51.6649 -15.4696 -112.4106 L 0 145.8 c 0 -60.7457 0 -91.1185 15.4696 -112.4106 a 81.0000 81.0000 0 0 1 17.9198 -17.9198 c 21.2921 -15.4696 51.6649 -15.4696 112.4106 -15.4696 Z" fill="#000000"/><g transform="translate(40, 64.92853118817717) scale(0.41924875863062877, 0.41924875863062877)">
  <defs xmlns="http://www.w3.org/2000/svg">
    <style>
      .cls-1 {
        fill: #e9ff4a;
      }

      .cls-2 {
        fill: #fff;
      }
    </style>
  </defs>
  <g xmlns="http://www.w3.org/2000/svg">
    <g>
      <path class="cls-2" d="M235.73,288.04h11.67c7.92,0,11.81,4.39,11.81,12.46v4.97c0,8.06-3.89,12.46-11.81,12.46h-3.74v20.52h-7.92v-50.4ZM247.39,310.72c2.52,0,3.89-1.15,3.89-4.75v-5.98c0-3.6-1.37-4.75-3.89-4.75h-3.74v15.48h3.74Z"/>
      <path class="cls-2" d="M263.52,288.04h11.74c8.21,0,11.74,3.82,11.74,11.59v3.1c0,5.18-1.66,8.5-5.18,9.94v.14c3.96,1.22,5.26,4.97,5.26,10.66v8.86c0,2.45.07,4.25.86,6.12h-8.06c-.43-1.3-.72-2.09-.72-6.19v-9.22c0-4.68-1.37-6.19-4.97-6.19h-2.74v21.6h-7.92v-50.4ZM274.32,309.64c2.95,0,4.75-1.3,4.75-5.33v-3.89c0-3.6-1.22-5.18-4.03-5.18h-3.6v14.4h2.88Z"/>
      <path class="cls-2" d="M291.96,326.49v-26.5c0-8.06,4.25-12.67,12.03-12.67s12.02,4.61,12.02,12.67v26.5c0,8.06-4.25,12.67-12.02,12.67s-12.03-4.61-12.03-12.67ZM308.09,326.99v-27.51c0-3.6-1.58-4.97-4.1-4.97s-4.1,1.37-4.1,4.97v27.51c0,3.6,1.58,4.97,4.1,4.97s4.1-1.37,4.1-4.97Z"/>
      <path class="cls-2" d="M321.34,288.04h12.1c7.92,0,11.81,4.39,11.81,12.46v25.49c0,8.06-3.89,12.46-11.81,12.46h-12.1v-50.4ZM333.29,331.24c2.52,0,4.03-1.3,4.03-4.9v-26.21c0-3.6-1.51-4.9-4.03-4.9h-4.03v36h4.03Z"/>
      <path class="cls-2" d="M350.28,326.49v-38.45h7.92v39.03c0,3.6,1.51,4.9,4.03,4.9s4.03-1.3,4.03-4.9v-39.03h7.63v38.45c0,8.06-4.03,12.67-11.81,12.67s-11.81-4.61-11.81-12.67Z"/>
      <path class="cls-2" d="M379.01,326.78v-27.07c0-7.78,4.03-12.38,11.67-12.38s11.66,4.61,11.66,12.38v5.33h-7.49v-5.83c0-3.31-1.58-4.68-3.96-4.68s-3.96,1.37-3.96,4.68v28.15c0,3.31,1.58,4.61,3.96,4.61s3.96-1.3,3.96-4.61v-7.71h7.49v7.13c0,7.78-4.03,12.38-11.66,12.38s-11.67-4.61-11.67-12.38Z"/>
      <path class="cls-2" d="M413.28,295.24h-8.28v-7.2h24.48v7.2h-8.28v43.2h-7.92v-43.2Z"/>
      <path class="cls-2" d="M433.29,288.04h7.92v50.4h-7.92v-50.4Z"/>
      <path class="cls-2" d="M446.54,326.49v-26.5c0-8.06,4.25-12.67,12.03-12.67s12.03,4.61,12.03,12.67v26.5c0,8.06-4.25,12.67-12.03,12.67s-12.03-4.61-12.03-12.67ZM462.67,326.99v-27.51c0-3.6-1.58-4.97-4.1-4.97s-4.1,1.37-4.1,4.97v27.51c0,3.6,1.58,4.97,4.1,4.97s4.1-1.37,4.1-4.97Z"/>
      <path class="cls-2" d="M475.92,288.04h9.94l7.71,30.17h.14v-30.17h7.06v50.4h-8.14l-9.5-36.79h-.14v36.79h-7.06v-50.4Z"/>
      <path class="cls-2" d="M505.29,326.49v-2.88h7.49v3.46c0,3.6,1.58,4.9,4.1,4.9s4.1-1.3,4.1-5.04c0-4.18-1.58-6.84-6.77-11.38-6.62-5.83-8.78-9.94-8.78-15.7,0-7.92,4.1-12.53,11.81-12.53s11.52,4.61,11.52,12.67v2.09h-7.49v-2.59c0-3.6-1.44-4.97-3.96-4.97s-3.96,1.37-3.96,4.82c0,3.67,1.66,6.34,6.84,10.87,6.62,5.83,8.71,9.87,8.71,16.13,0,8.21-4.18,12.82-11.95,12.82s-11.67-4.61-11.67-12.67Z"/>
    </g>
    <rect class="cls-2" x="167.32" y="312.5" width="30.58" height="5.42"/>
    <rect class="cls-2" x="565.37" y="312.5" width="30.58" height="5.42"/>
  </g>
  <g xmlns="http://www.w3.org/2000/svg">
    <polygon class="cls-1" points="460.27 67.57 552.81 11.22 647.15 115.78 637.22 8.09 734.24 0 734.24 265.71 648.47 273.13 651.71 172.87 579.86 267.2 452.17 247.56 584.78 140.51 460.27 67.57"/>
    <polygon class="cls-1" points="292.47 136.57 394.94 251.66 517.03 143.01 457.19 111.8 403.74 162.24 324.43 48.55 292.47 136.57"/>
    <polygon class="cls-1" points="0 549.03 87.18 354.57 154.75 463.92 249.05 385.74 266.65 589.11 207.09 606.92 199.87 505.65 138.96 558.97 98.81 488.57 62.26 577.23 0 549.03"/>
    <polygon class="cls-1" points="282.03 376.84 343.33 354.57 350.31 480.75 411.87 403.06 507.85 411.5 396.9 497.07 457.19 562.39 394.84 606.92 355.32 530.67 350.94 612.17 295.77 596.08 282.03 376.84"/>
    <polygon class="cls-1" points="432.93 494.5 588.64 411.34 637.83 442.15 576.64 469.61 638.25 532.7 633.37 627.91 527.41 505.98 481.14 536.22 432.93 494.5"/>
    <polygon class="cls-1" points="763.27 503.88 718.54 510.62 660.83 644.35 669.37 498.96 632.44 472.84 681.41 465.46 715.02 415.99 722.84 475.29 763.27 503.88"/>
    <polygon class="cls-1" points="40.26 84.43 113.86 207.06 159.32 288.34 311.32 194.76 244.02 141.23 286.66 51.89 40.26 84.43"/>
  </g>
</g></svg>